<?xml version="1.0" encoding="UTF-8" standalone="no"?>
<!-- Created with Inkscape (http://www.inkscape.org/) -->

<svg
   xmlns:osb="http://www.openswatchbook.org/uri/2009/osb"
   xmlns:dc="http://purl.org/dc/elements/1.1/"
   xmlns:cc="http://creativecommons.org/ns#"
   xmlns:rdf="http://www.w3.org/1999/02/22-rdf-syntax-ns#"
   xmlns:svg="http://www.w3.org/2000/svg"
   xmlns="http://www.w3.org/2000/svg"
   xmlns:xlink="http://www.w3.org/1999/xlink"
   xmlns:sodipodi="http://sodipodi.sourceforge.net/DTD/sodipodi-0.dtd"
   xmlns:inkscape="http://www.inkscape.org/namespaces/inkscape"
   width="32"
   height="32"
   viewBox="0 0 8.4666664 8.4666664"
   version="1.1"
   id="svg941"
   inkscape:version="0.92.3 (2405546, 2018-03-11)"
   sodipodi:docname="restart_icon.svg">
  <defs
     id="defs935">
    <inkscape:path-effect
       effect="skeletal"
       id="path-effect932"
       is_visible="true"
       pattern="M 0,0 H 1"
       copytype="single_stretched"
       prop_scale="1"
       scale_y_rel="false"
       spacing="0"
       normal_offset="0"
       tang_offset="0"
       prop_units="false"
       vertical_pattern="false"
       fuse_tolerance="0" />
    <linearGradient
       id="linearGradient881"
       inkscape:collect="always">
      <stop
         id="stop877"
         offset="0"
         style="stop-color:#ca4b5b;stop-opacity:1" />
      <stop
         id="stop879"
         offset="1"
         style="stop-color:#a14c55;stop-opacity:0" />
    </linearGradient>
    <linearGradient
       id="linearGradient875"
       inkscape:collect="always">
      <stop
         id="stop871"
         offset="0"
         style="stop-color:#35b845;stop-opacity:1" />
      <stop
         id="stop873"
         offset="1"
         style="stop-color:#4ca156;stop-opacity:0" />
    </linearGradient>
    <linearGradient
       id="linearGradient1050"
       osb:paint="gradient">
      <stop
         style="stop-color:#ff5555;stop-opacity:1;"
         offset="0"
         id="stop1046" />
      <stop
         style="stop-color:#ff5555;stop-opacity:0;"
         offset="1"
         id="stop1048" />
    </linearGradient>
    <filter
       inkscape:label="Chalk and Sponge"
       inkscape:menu="Distort"
       inkscape:menu-tooltip="Low turbulence gives sponge look and high turbulence chalk"
       width="1.6"
       height="2"
       y="-0.5"
       x="-0.30000001"
       style="color-interpolation-filters:sRGB"
       id="filter1092">
      <feTurbulence
         baseFrequency="0.4"
         type="fractalNoise"
         seed="0"
         numOctaves="5"
         result="result1"
         id="feTurbulence1088" />
      <feDisplacementMap
         xChannelSelector="R"
         yChannelSelector="G"
         scale="30"
         in="SourceGraphic"
         in2="result1"
         id="feDisplacementMap1090" />
    </filter>
    <linearGradient
       gradientTransform="matrix(0.74875605,0,0,0.74875605,-59.212798,19.84746)"
       inkscape:collect="always"
       xlink:href="#linearGradient881"
       id="linearGradient914-5-3"
       x1="255.46437"
       y1="137.30252"
       x2="255.46437"
       y2="95.796867"
       gradientUnits="userSpaceOnUse" />
    <linearGradient
       gradientTransform="matrix(0.74875606,0,0,-0.74875606,-34.341967,211.99106)"
       inkscape:collect="always"
       xlink:href="#linearGradient875"
       id="linearGradient914-5-3-3"
       x1="255.46437"
       y1="137.30252"
       x2="255.46437"
       y2="95.796867"
       gradientUnits="userSpaceOnUse" />
  </defs>
  <sodipodi:namedview
     id="base"
     pagecolor="#ffffff"
     bordercolor="#666666"
     borderopacity="1.0"
     inkscape:pageopacity="0.0"
     inkscape:pageshadow="2"
     inkscape:zoom="5.8026459"
     inkscape:cx="-45.405842"
     inkscape:cy="52.240727"
     inkscape:document-units="mm"
     inkscape:current-layer="layer1"
     showgrid="false"
     inkscape:window-width="1920"
     inkscape:window-height="1020"
     inkscape:window-x="0"
     inkscape:window-y="0"
     inkscape:window-maximized="1"
     showguides="true"
     units="px" />
  <metadata
     id="metadata938">
    <rdf:RDF>
      <cc:Work
         rdf:about="">
        <dc:format>image/svg+xml</dc:format>
        <dc:type
           rdf:resource="http://purl.org/dc/dcmitype/StillImage" />
        <dc:title />
      </cc:Work>
    </rdf:RDF>
  </metadata>
  <g
     inkscape:label="Layer 1"
     inkscape:groupmode="layer"
     id="layer1"
     transform="translate(-116.61071,-134.95259)">
    <g
       id="g885"
       transform="matrix(0.15833486,0,0,0.15833486,97.984404,120.83186)"
       style="stroke-width:6.31572866">
      <path
         sodipodi:nodetypes="ssssssssssssssssssssssssssssssssssssssscccccssss"
         inkscape:connector-curvature="0"
         id="rect7137-6-0-5"
         d="m 126.23294,97.802016 c -0.007,0 -0.0128,0.006 -0.0128,0.0127 v 0.72356 c 0,0.007 0.006,0.0127 0.0128,0.0127 h 11.41441 c 0.007,0 0.0124,-0.006 0.0124,-0.0127 v -0.72356 c 0,-0.007 -0.005,-0.0127 -0.0124,-0.0127 z m 0.0123,1.87701 c -0.0139,0 -0.0252,0.0112 -0.0252,0.0251 v 1.447124 c 0,0.0139 0.0112,0.0252 0.0252,0.0252 h 11.38929 c 0.0139,0 0.0252,-0.0112 0.0252,-0.0252 v -1.447124 c 0,-0.0139 -0.0112,-0.0251 -0.0252,-0.0251 z m 0.0127,2.669034 c -0.0208,0 -0.0379,0.0167 -0.0379,0.0375 v 2.17106 c 0,0.0208 0.0171,0.0379 0.0379,0.0379 h 11.36415 c 0.0208,0 0.0375,-0.0171 0.0375,-0.0379 v -2.17106 c 0,-0.0208 -0.0167,-0.0375 -0.0375,-0.0375 z m 0.0248,3.46187 c -0.0347,0 -0.0627,0.0279 -0.0627,0.0627 v 3.61817 c 0,0.0348 0.0279,0.0627 0.0627,0.0627 h 11.31424 c 0.0347,0 0.0627,-0.0279 0.0627,-0.0627 v -3.61817 c 0,-0.0347 -0.0279,-0.0627 -0.0627,-0.0627 z m 0.13816,4.93257 c -0.1113,0 -0.20083,0.0895 -0.20083,0.20082 v 11.5967 c 0,0.0198 0.006,0.038 0.0112,0.0561 h -6.08602 l 11.79442,11.44038 11.7948,-11.44038 h -6.08602 c 0.005,-0.0181 0.0112,-0.0362 0.0112,-0.0561 v -11.5967 c 0,-0.1113 -0.0899,-0.20082 -0.20121,-0.20082 z"
         style="fill:url(#linearGradient914-5-3);fill-opacity:1;fill-rule:nonzero;stroke:none;stroke-width:3.15786433;stroke-linecap:square;stroke-linejoin:round;stroke-miterlimit:4;stroke-dasharray:none;stroke-opacity:0;paint-order:stroke fill markers" />
      <path
         sodipodi:nodetypes="ssssssssssssssssssssssssssssssssssssssscccccssss"
         inkscape:connector-curvature="0"
         id="rect7137-6-0-5-2"
         d="m 151.10378,134.0365 c -0.007,0 -0.0128,-0.006 -0.0128,-0.0127 v -0.72356 c 0,-0.007 0.006,-0.0127 0.0128,-0.0127 h 11.41441 c 0.007,0 0.0124,0.006 0.0124,0.0127 v 0.72356 c 0,0.007 -0.005,0.0127 -0.0124,0.0127 z m 0.0123,-1.87701 c -0.0139,0 -0.0252,-0.0112 -0.0252,-0.0251 v -1.44713 c 0,-0.0139 0.0112,-0.0252 0.0252,-0.0252 h 11.38929 c 0.0139,0 0.0252,0.0112 0.0252,0.0252 v 1.44713 c 0,0.0139 -0.0112,0.0251 -0.0252,0.0251 z m 0.0127,-2.66904 c -0.0208,0 -0.0379,-0.0167 -0.0379,-0.0375 v -2.17106 c 0,-0.0208 0.0171,-0.0379 0.0379,-0.0379 h 11.36415 c 0.0208,0 0.0375,0.0171 0.0375,0.0379 v 2.17106 c 0,0.0208 -0.0167,0.0375 -0.0375,0.0375 z m 0.0248,-3.46187 c -0.0347,0 -0.0627,-0.0279 -0.0627,-0.0627 v -3.61817 c 0,-0.0348 0.0279,-0.0627 0.0627,-0.0627 h 11.31424 c 0.0347,0 0.0627,0.0279 0.0627,0.0627 v 3.61817 c 0,0.0347 -0.0279,0.0627 -0.0627,0.0627 z m 0.13816,-4.93257 c -0.1113,0 -0.20083,-0.0895 -0.20083,-0.20082 v -11.5967 c 0,-0.0198 0.006,-0.038 0.0112,-0.0561 h -6.08602 l 11.79442,-11.440374 11.7948,11.440374 h -6.08602 c 0.005,0.0181 0.0112,0.0362 0.0112,0.0561 v 11.5967 c 0,0.1113 -0.0899,0.20082 -0.20121,0.20082 z"
         style="fill:url(#linearGradient914-5-3-3);fill-opacity:1;fill-rule:nonzero;stroke:none;stroke-width:3.15786433;stroke-linecap:square;stroke-linejoin:round;stroke-miterlimit:4;stroke-dasharray:none;stroke-opacity:0;paint-order:stroke fill markers" />
    </g>
  </g>
</svg>
