<svg xmlns="http://www.w3.org/2000/svg" width="207.874" height="207.874" viewBox="0 0 55 55" xmlns:v="https://vecta.io/nano"><g transform="matrix(.857072 .495007 0 .857376 42.567234 -21.217333)"><path d="M-44.97 96.48l27.4-.001L9.8 64.85V37.463l-27.4.002-27.4 31.626z" fill="#bd9c8d" stroke="#000" stroke-width="1.543"/><g transform="matrix(1.035213 .597578 0 1.035125 -102.0411 98.350508)"><path d="M55.13-60.093v26.458L81.588-48.91V-75.37L55.13-60.093z" fill="#96644c" paint-order="stroke fill markers"/><path d="M66.375-66.585v6.615l.992-1.51.992.364s.66-1.318.992-1.51.992.364.992.364v-6.615z" fill="#bd9c8d" paint-order="stroke fill markers"/></g><path d="M-17.58 69.1v27.388L9.8 64.85V37.464L-17.58 69.1z" fill="#7b5340" paint-order="stroke fill markers"/><g transform="matrix(1.035214 -.000051 0 1.035125 -84.99128 36.37767)"><path d="M65.118 1.054L38.66 31.605h26.458L91.577 1.053z" fill="#a56b4f"/><path d="M76.363 1.054l-26.458 30.55h4.038L80.4 1.054z" fill="#bd9c8d"/></g><g transform="matrix(-.411488 .237572 0 .41233 -74.512217 109.293226)"><g fill="none" stroke="#4e382f" stroke-linejoin="round"><path d="M-112.112-4.918c-1.156.667-2.086 2.28-2.086 3.613V1.12l-5.287 3.052c-2 1.154-3.61 3.942-3.61 6.25v10.124c0 2.308 1.61 3.237 3.61 2.083l28.818-16.638c2-1.154 3.61-3.942 3.61-6.25v-10.124c0-2.308-1.61-3.237-3.61-2.083l-5.286 3.052v-2.425c0-1.335-.93-1.87-2.086-1.204z" stroke-width="2.462" paint-order="stroke fill markers"/><ellipse ry="6.317" rx="7.29" cy="-55.583" cx="-121.331" stroke-width="1.764" paint-order="stroke fill markers" transform="matrix(.866025 -.5 0 1 0 0)"/></g><ellipse ry="1.245" rx="1.438" transform="matrix(.866025 -.5 0 1 0 0)" cy="-60.514" cx="-136.777" fill="#4e382f" stroke="none" paint-order="stroke fill markers"/><path d="M-106.578 2.377c.462-.464.97-.867 1.502-1.175s1.04-.494 1.502-.565.878-.028 1.227.12.632.403.827.754.303.8.303 1.335-.108 1.11-.303 1.686-.478 1.16-.827 1.713m-2.73 2.718c-.533.31-1.04.494-1.502.565s-.878.028-1.227-.12-.632-.403-.827-.754-.303-.8-.303-1.335.108-1.11.303-1.686" fill="none" stroke="#4e382f" stroke-width=".821" stroke-linecap="round" stroke-linejoin="round" paint-order="stroke fill markers"/></g><text transform="matrix(-1.000043 1.154701 0 .999957 0 0)" y="58.343" x="7.812" xml:space="preserve" font-size="10.259" font-family="sans-serif" letter-spacing="0" word-spacing="0" fill="#4e382f"><tspan y="58.343" x="7.812">+</tspan></text><path d="M-1.7 69.437l9.776-11.244M.86 67.56l7.216-8.273M-.462 70.2l8.538-9.807M1.8 68.672l6.285-7.192m-6.77 8.854l6.772-7.758M.335 72.564l7.747-8.9" fill="#4e382f" stroke="#4e382f" stroke-width=".308"/><g fill="none"><path transform="matrix(.677707 -.782514 0 1.035125 -11.464553 57.049567)" d="M12.304 21.57H29.64v7.978H12.304z" stroke="#2b2b2b" stroke-width=".369" paint-order="stroke fill markers"/><g stroke="#4e382f" stroke-width=".309"><path d="M-43.515 69.09h10.186"/><path d="M-29.15 69.1h10.123" stroke-linejoin="round"/></g><path d="M-33.33 69.1h4.1m-2.02 0l27.354-31.626" stroke-width=".309" stroke="#ad8c80"/></g></g></svg>