<svg xmlns="http://www.w3.org/2000/svg" width="207.874" height="207.874" viewBox="0 0 55 55" xmlns:v="https://vecta.io/nano"><path d="M12.954 6.664L11.207 8.02l3.54 4.218 1.363-1.07z" fill="#a08e4c" fill-opacity=".325" paint-order="stroke fill markers"/><g fill="#a18f4c"><path d="M42.037 6.68L38.9 11.16c5.314 3.718 8.48 9.794 8.484 16.28-.01 6.483-3.18 12.554-8.492 16.268l3.156 4.508c6.78-4.745 10.822-12.5 10.827-20.775-.012-8.273-4.057-16.02-10.838-20.76z" paint-order="stroke fill markers"/><path d="M9.583 9.52c-1.038 1.047-1.983 2.182-2.825 3.394l4.484 3.14c.662-.947 1.405-1.835 2.222-2.653z" fill-opacity=".404" paint-order="stroke fill markers"/><path d="M5.573 14.778c-1.477 2.558-2.496 5.354-3.012 8.263l5.4.95c.405-2.28 1.206-4.47 2.365-6.475z" fill-opacity=".482" paint-order="stroke fill markers"/><path d="M2.26 25.23l-.135 2.208c.004 5.206 1.6 10.285 4.6 14.547l4.507-3.156c-2.345-3.337-3.607-7.313-3.615-11.392.006-.578.037-1.155.093-1.73z" fill-opacity=".557" paint-order="stroke fill markers"/><path d="M12.284 40.207l-4.22 3.54C12.885 49.493 20 52.81 27.5 52.812c4.452-.008 8.824-1.187 12.676-3.42l-2.746-4.757c-3.017 1.75-6.44 2.677-9.93 2.686-5.874-.008-11.444-2.612-15.216-7.115z" fill-opacity=".706" paint-order="stroke fill markers"/><path d="M35.685 17.22L33.27 4.218l12.738-2.03z"/></g></svg>