<svg xmlns="http://www.w3.org/2000/svg" width="207.874" height="207.874" viewBox="0 0 55 55" xmlns:v="https://vecta.io/nano"><g transform="matrix(.746821 0 0 .746821 -318.009765 -86.632916)"><g fill="#525762" stroke="#000" stroke-linejoin="round"><rect width="8.829" height="14.678" x="458.159" y="171.012" ry="1.276" rx="0" paint-order="stroke fill markers"/><path d="M486.598 126.72a9.25 9.25 0 0 1-9.246 9.246v-9.246zm0 14.226a9.25 9.25 0 0 1-9.246 9.246v-9.246zm0 13.444a9.25 9.25 0 0 1-9.246 9.246V154.4z" paint-order="stroke fill markers"/></g><path d="M492.42 125.747a9.246 9.246 0 0 1-9.246 9.246v-9.246zm0 14.225a9.246 9.246 0 0 1-9.246 9.246v-9.246zm0 13.445a9.246 9.246 0 0 1-9.246 9.246v-9.246z" paint-order="stroke fill markers" transform="matrix(-1 0 0 1 931.10181 .502327)" fill="#525762" stroke="#000" stroke-linejoin="round"/><rect width="28.174" height="51.228" x="448.486" y="119.873" ry="6.665" fill="#5f6572" stroke="#000" stroke-width="1.826" stroke-linejoin="round" paint-order="stroke fill markers"/><circle cx="462.573" cy="131" r="5.123" fill="#1e1e1e" paint-order="stroke fill markers"/><circle cx="462.573" cy="131.53" r="4" fill="#663030" paint-order="stroke fill markers"/><circle cx="462.573" cy="145.108" r="5.123" fill="#1e1e1e" paint-order="stroke fill markers"/><circle cx="462.573" cy="145.638" r="4" fill="#6a683a" paint-order="stroke fill markers"/><circle cx="462.573" cy="158.405" r="5.123" fill="#1e1e1e" paint-order="stroke fill markers"/><circle cx="462.573" cy="158.935" r="4" fill="#49dc2b" paint-order="stroke fill markers"/></g></svg>