<svg xmlns="http://www.w3.org/2000/svg" width="207.87" height="207.87" viewBox="0 0 55 55"><g stroke-width=".79" color="#000" font-weight="400" font-family="sans-serif"><path style="line-height:normal;font-variant-ligatures:normal;font-variant-position:normal;font-variant-caps:normal;font-variant-numeric:normal;font-variant-alternates:normal;font-feature-settings:normal;text-indent:0;text-align:start;text-decoration-line:none;text-decoration-style:solid;text-decoration-color:#000;text-transform:none;text-orientation:mixed;white-space:normal;shape-padding:0;isolation:auto;mix-blend-mode:normal;solid-color:#000;solid-opacity:1" d="M21.97 25.32c0 2 .76 4.01 2.28 5.53a2 2 0 102.83-2.83 3.77 3.77 0 010-5.4l8.23-8.23a3.77 3.77 0 015.4 0 3.77 3.77 0 010 5.4l-6.81 6.82a2 2 0 102.83 2.83l6.81-6.82a7.85 7.85 0 000-11.06 7.85 7.85 0 00-11.06 0l-8.23 8.23a7.8 7.8 0 00-2.28 5.53z" overflow="visible" fill="#917c6f"/><path d="M37.68 11.9a4.3 4.3 0 00-3.04 1.13l-8.23 8.23c-1.52 1.53-2.19 5.22-.67 6.74 1.36 1.33 1 3.14.01 3.43A2 2 0 0027.08 28a3.77 3.77 0 010-5.4l8.23-8.23a3.77 3.77 0 015.4 0 3.82 3.82 0 011.13 2.41c.08-1.42-.29-2.91-1.12-3.75a4.3 4.3 0 00-3.04-1.14zm7.24 1.5c1.3 2.6.4 5.43-2.04 7.86l-6.82 6.82c-1.05 1.08-2.19 1.08-2.67.55a2 2 0 003.34.79l6.81-6.82a7.86 7.86 0 001.38-9.2zM33.9 26.6a2 2 0 00-.16.17l.16-.17z" style="line-height:normal;font-variant-ligatures:normal;font-variant-position:normal;font-variant-caps:normal;font-variant-numeric:normal;font-variant-alternates:normal;font-feature-settings:normal;text-indent:0;text-align:start;text-decoration-line:none;text-decoration-style:solid;text-decoration-color:#000;text-transform:none;text-orientation:mixed;white-space:normal;shape-padding:0;isolation:auto;mix-blend-mode:normal;solid-color:#000;solid-opacity:1" overflow="visible" fill="#6c5d53"/><path style="line-height:normal;font-variant-ligatures:normal;font-variant-position:normal;font-variant-caps:normal;font-variant-numeric:normal;font-variant-alternates:normal;font-feature-settings:normal;text-indent:0;text-align:start;text-decoration-line:none;text-decoration-style:solid;text-decoration-color:#000;text-transform:none;text-orientation:mixed;white-space:normal;shape-padding:0;isolation:auto;mix-blend-mode:normal;solid-color:#000;solid-opacity:1" d="M13.63 12.58c1.6 0 3.18-.6 4.4-1.8a1.59 1.59 0 10-2.26-2.25 3 3 0 01-4.28 0L4.95 1.99a3 3 0 010-4.29 3 3 0 014.3 0l5.4 5.42A1.59 1.59 0 1016.9.87l-5.41-5.41a6.23 6.23 0 00-8.78 0 6.23 6.23 0 000 8.78l6.53 6.53a6.19 6.19 0 004.39 1.81z" overflow="visible" fill="none" stroke="#000" stroke-width=".63" stroke-linecap="round" transform="matrix(0 1.26003 -1.26 0 37.82 8.13)"/><g><path style="line-height:normal;font-variant-ligatures:normal;font-variant-position:normal;font-variant-caps:normal;font-variant-numeric:normal;font-variant-alternates:normal;font-feature-settings:normal;text-indent:0;text-align:start;text-decoration-line:none;text-decoration-style:solid;text-decoration-color:#000;text-transform:none;text-orientation:mixed;white-space:normal;shape-padding:0;isolation:auto;mix-blend-mode:normal;solid-color:#000;solid-opacity:1" d="M33.03 29.68c0-2-.76-4.01-2.28-5.53a2 2 0 10-2.83 2.83 3.77 3.77 0 010 5.4l-8.23 8.23a3.77 3.77 0 01-5.4 0 3.77 3.77 0 010-5.4l6.81-6.82a2 2 0 10-2.83-2.83l-6.81 6.82a7.85 7.85 0 000 11.06 7.85 7.85 0 0011.06 0l8.23-8.23a7.8 7.8 0 002.28-5.53z" overflow="visible" fill="#6c5d53"/><path d="M28.14 23.93zm-.24.21zm1.52-.66c1.52 1.52 2.28 4.2 2.28 6.2s-.1 2.68-1.61 4.2l-8.24 8.23a7.06 7.06 0 01-10.4 0 7.05 7.05 0 01-2.26-4.56 7.8 7.8 0 0013.33 5.9l8.23-8.24a7.8 7.8 0 002.28-5.53c0-2-2.1-4.68-3.61-6.2zm-10.99 1.94a2 2 0 00-.15.14l.15-.14zm2.75.2c.02.4-.2.9-.74 1.44l-6.82 6.82c-1.52 1.52-1.52 5.21 0 6.73.8.8 2.02 1.18 3.21 1.14a3.81 3.81 0 01-2.54-1.14 3.77 3.77 0 010-5.4l6.81-6.82a2 2 0 00.08-2.78zm6.63 1.24a2 2 0 00.11.12l-.1-.12zm-16.35 5.52a7.8 7.8 0 00-.36.4c.11-.14.23-.27.36-.4z" style="line-height:normal;font-variant-ligatures:normal;font-variant-position:normal;font-variant-caps:normal;font-variant-numeric:normal;font-variant-alternates:normal;font-feature-settings:normal;text-indent:0;text-align:start;text-decoration-line:none;text-decoration-style:solid;text-decoration-color:#000;text-transform:none;text-orientation:mixed;white-space:normal;shape-padding:0;isolation:auto;mix-blend-mode:normal;solid-color:#000;solid-opacity:1" overflow="visible" fill="#483e37"/><path style="line-height:normal;font-variant-ligatures:normal;font-variant-position:normal;font-variant-caps:normal;font-variant-numeric:normal;font-variant-alternates:normal;font-feature-settings:normal;text-indent:0;text-align:start;text-decoration-line:none;text-decoration-style:solid;text-decoration-color:#000;text-transform:none;text-orientation:mixed;white-space:normal;shape-padding:0;isolation:auto;mix-blend-mode:normal;solid-color:#000;solid-opacity:1" d="M18.06-1.43c-1.6 0-3.18.6-4.39 1.8a1.59 1.59 0 102.25 2.25 3 3 0 014.29 0l6.53 6.54a3 3 0 010 4.29 3 3 0 01-4.29 0l-5.41-5.42a1.59 1.59 0 10-2.25 2.25l5.42 5.41a6.23 6.23 0 008.77 0 6.23 6.23 0 000-8.78L22.45.38a6.19 6.19 0 00-4.39-1.81z" overflow="visible" fill="none" stroke="#000" stroke-width=".63" stroke-linecap="round" transform="matrix(0 1.26003 -1.26 0 31.23 6.94)"/></g></g></svg>