<svg xmlns="http://www.w3.org/2000/svg" width="207.874" height="207.874" viewBox="0 0 55 55"  xmlns:v="https://vecta.io/nano"><g transform="rotate(45 24.803 33.515)"><g fill="none" stroke="#000"><circle r="11.102" cy="17.098" cx="22.612" stroke-width="2.117" paint-order="normal"/><path d="M21.448 28.376h1.707v3.103h-1.707z" paint-order="normal" stroke-width="2.381"/></g><path d="M20.053 32.15h4.498v2.483h-4.498z" fill="#666" stroke="#000" stroke-width="2.381" paint-order="normal"/><path d="M22.302 52c1.246 0 2.25-1.003 2.25-2.25V35.393h-4.498V49.76c0 1.246 1.003 2.25 2.25 2.25z" fill="none" stroke="#000" stroke-width="2.381" paint-order="normal"/><g stroke-width=".794"><path d="M22.302 52c1.246 0 2.25-1.003 2.25-2.25V35.393h-4.498V49.76c0 1.246 1.003 2.25 2.25 2.25z" fill="#a05a2c" stroke="#a05a2c" paint-order="normal"/><path d="M20.053 32.15h4.498v2.483h-4.498z" fill="#666" stroke="#666" paint-order="normal"/><path d="M21.448 28.376h1.707v3.103h-1.707z" fill="#4d4d4d" stroke="#4d4d4d" paint-order="normal"/></g><g fill="none"><circle r="10.184" cy="17.098" cx="22.612" stroke="#666" stroke-width="2.117" paint-order="normal"/><circle r="9.426" cy="17.098" cx="22.612" stroke="#4d4d4d" stroke-width=".794" paint-order="normal"/></g><g transform="rotate(315)" fill="#e6e6e6"><circle cx="1.814" cy="21.793" r="1.509" paint-order="normal"/><circle cx="3.488" cy="23.411" r=".713" paint-order="normal"/></g></g></svg>