<svg xmlns="http://www.w3.org/2000/svg" width="207.874" height="207.874" viewBox="0 0 55 55"  xmlns:v="https://vecta.io/nano"><defs><linearGradient id="A" x1="144.266" y1="124.012" x2="144.266" y2="86.666" gradientUnits="userSpaceOnUse"><stop offset="0" stop-color="#a18f4c"/><stop offset="1" stop-color="#a18f4c" stop-opacity="0"/></linearGradient></defs><g transform="translate(-116.611 -88.419)"><path d="M137.254 94.148c-.008 0-.015.007-.015.015v.87c0 .008.006.015.015.015h13.717c.008 0 .015-.007.015-.015v-.87c0-.008-.006-.015-.015-.015zm.015 2.256c-.017 0-.03.013-.03.03v1.74c0 .017.013.03.03.03h13.687c.017 0 .03-.013.03-.03v-1.74c0-.017-.013-.03-.03-.03zm.015 3.207c-.025 0-.046.02-.046.045v2.61c0 .025.02.046.046.046h13.656c.025 0 .045-.02.045-.046v-2.61c0-.025-.02-.045-.045-.045zm.03 4.16c-.042 0-.075.034-.075.075v4.348c0 .042.034.075.075.075h13.596c.042 0 .075-.034.075-.075v-4.348c0-.042-.034-.075-.075-.075zm.166 5.927a.24.24 0 0 0-.241.241v13.936c0 .024.007.046.013.067h-7.314L144.1 137.69l14.174-13.748h-7.314c.006-.022.013-.043.013-.067V109.94a.24.24 0 0 0-.242-.241z" fill="url(#A)" paint-order="stroke fill markers"/><g fill="#666" stroke="#000" stroke-width=".529"><path d="M146.353 103.453a1.63 1.63 0 0 0-1.622 1.645v11.904a1.63 1.63 0 0 0 1.622 1.645h8.684a1.63 1.63 0 0 0 1.622-1.645v-10.177l-3.325-3.372z" fill="#6c6753" paint-order="normal"/><path d="M149.72 110.236c-.33 0-.6.26-.633.592h-1.476c-.143 0-.26.12-.26.267v3.14c0 .148.115.267.26.267h6.167c.143 0 .258-.12.258-.267v-3.14c0-.148-.115-.267-.258-.267h-1.476c-.034-.333-.3-.592-.633-.592zm.975 1.157c.33 0 .646.135.88.377a1.31 1.31 0 0 1 0 1.818c-.233.24-.55.377-.88.377s-.646-.135-.88-.377a1.31 1.31 0 0 1 0-1.818c.233-.24.55-.377.88-.377z" fill="#008066" stroke-linejoin="round" paint-order="stroke fill markers"/><g stroke-linecap="round"><path d="M153.455 103.576v2.45c0 .443.352.8.788.8h2.416" paint-order="normal"/><path d="M147.052 105.8h4.95m-4.95 1.205h1.48"/></g></g></g></svg>