<svg xmlns="http://www.w3.org/2000/svg" width="32" height="32" viewBox="0 0 8.467 8.467" xmlns:v="https://vecta.io/nano"><path d="M2.44 2.25C1.518 2.172.773 2.817.506 3.624c-.3.808.06 1.767.77 2.234.565.393 1.354.496 1.964.142.287-.14.505-.38.687-.638-.186-.264-.333-.552-.483-.837-.257.354-.58.8-1.07.768-.603-.008-1.14-.6-1.033-1.196.074-.626.8-1.08 1.396-.828.62.195.898.83 1.175 1.36.372.696.942 1.38 1.752 1.548.992.222 2.084-.464 2.33-1.45.277-.94-.304-2-1.206-2.327-.435-.178-.934-.194-1.37-.012-.364.13-.674.385-.887.707.193.268.327.57.487.856.23-.33.502-.714.94-.752.6-.077 1.2.45 1.17 1.067-.004.72-.87 1.25-1.513.927-.613-.332-.88-1.013-1.207-1.6-.84-1.1-1.046-1.275-1.968-1.353z" fill="#d4aa00" stroke="#000" stroke-width=".529" paint-order="stroke fill markers"/></svg>