<?xml version="1.0" encoding="UTF-8" standalone="no"?>
<!-- Created with Inkscape (http://www.inkscape.org/) -->

<svg
   xmlns:osb="http://www.openswatchbook.org/uri/2009/osb"
   xmlns:dc="http://purl.org/dc/elements/1.1/"
   xmlns:cc="http://creativecommons.org/ns#"
   xmlns:rdf="http://www.w3.org/1999/02/22-rdf-syntax-ns#"
   xmlns:svg="http://www.w3.org/2000/svg"
   xmlns="http://www.w3.org/2000/svg"
   xmlns:sodipodi="http://sodipodi.sourceforge.net/DTD/sodipodi-0.dtd"
   xmlns:inkscape="http://www.inkscape.org/namespaces/inkscape"
   width="55mm"
   height="55mm"
   viewBox="0 0 55 54.999999"
   version="1.1"
   id="svg941"
   inkscape:version="0.92.3 (2405546, 2018-03-11)"
   sodipodi:docname="rotating_arrow.svg">
  <defs
     id="defs935">
    <linearGradient
       id="linearGradient1050"
       osb:paint="gradient">
      <stop
         style="stop-color:#ff5555;stop-opacity:1;"
         offset="0"
         id="stop1046" />
      <stop
         style="stop-color:#ff5555;stop-opacity:0;"
         offset="1"
         id="stop1048" />
    </linearGradient>
    <filter
       inkscape:label="Chalk and Sponge"
       inkscape:menu="Distort"
       inkscape:menu-tooltip="Low turbulence gives sponge look and high turbulence chalk"
       width="1.6"
       height="2"
       y="-0.5"
       x="-0.3"
       style="color-interpolation-filters:sRGB;"
       id="filter1092">
      <feTurbulence
         baseFrequency="0.4"
         type="fractalNoise"
         seed="0"
         numOctaves="5"
         result="result1"
         id="feTurbulence1088" />
      <feDisplacementMap
         xChannelSelector="R"
         yChannelSelector="G"
         scale="30"
         in="SourceGraphic"
         in2="result1"
         id="feDisplacementMap1090" />
    </filter>
  </defs>
  <sodipodi:namedview
     id="base"
     pagecolor="#ffffff"
     bordercolor="#666666"
     borderopacity="1.0"
     inkscape:pageopacity="0.0"
     inkscape:pageshadow="2"
     inkscape:zoom="1.9752991"
     inkscape:cx="-17.208575"
     inkscape:cy="114.70417"
     inkscape:document-units="mm"
     inkscape:current-layer="g867"
     showgrid="false"
     inkscape:window-width="1920"
     inkscape:window-height="1020"
     inkscape:window-x="0"
     inkscape:window-y="0"
     inkscape:window-maximized="1"
     showguides="true" />
  <metadata
     id="metadata938">
    <rdf:RDF>
      <cc:Work
         rdf:about="">
        <dc:format>image/svg+xml</dc:format>
        <dc:type
           rdf:resource="http://purl.org/dc/dcmitype/StillImage" />
        <dc:title />
      </cc:Work>
    </rdf:RDF>
  </metadata>
  <g
     inkscape:label="Layer 1"
     inkscape:groupmode="layer"
     id="layer1"
     transform="translate(-116.61071,-88.419259)">
    <g
       id="g867"
       transform="translate(-27.95363,65.726387)">
      <path
         inkscape:connector-curvature="0"
         style="display:inline;fill:#a08e4c;fill-opacity:0.3254902;fill-rule:nonzero;stroke:none;stroke-width:0.26499999;stroke-linecap:round;stroke-linejoin:round;stroke-miterlimit:4;stroke-dasharray:none;stroke-opacity:1;paint-order:stroke fill markers"
         d="m 157.51768,29.356622 a 25.373864,25.373864 0 0 0 -1.74667,1.35702 l 3.53984,4.21835 a 19.883126,19.883126 0 0 1 1.36271,-1.06867 z"
         id="path7446" />
      <path
         inkscape:connector-curvature="0"
         style="display:inline;fill:#a18f4c;fill-opacity:1;fill-rule:nonzero;stroke:none;stroke-width:0.26499999;stroke-linecap:round;stroke-linejoin:round;stroke-miterlimit:4;stroke-dasharray:none;stroke-opacity:1;paint-order:stroke fill markers"
         d="m 186.60066,29.371612 -3.13727,4.48035 a 19.883126,19.883126 0 0 1 8.48372,16.279101 19.883126,19.883126 0 0 1 -8.49199,16.26774 l 3.15588,4.50774 a 25.373864,25.373864 0 0 0 10.82725,-20.77548 25.373864,25.373864 0 0 0 -10.83759,-20.759451 z"
         id="path7448" />
      <path
         inkscape:connector-curvature="0"
         style="display:inline;fill:#a18f4c;fill-opacity:0.40392157;fill-rule:nonzero;stroke:none;stroke-width:0.26499999;stroke-linecap:round;stroke-linejoin:round;stroke-miterlimit:4;stroke-dasharray:none;stroke-opacity:1;paint-order:stroke fill markers"
         d="m 154.14682,32.213812 a 25.373864,25.373864 0 0 0 -2.82463,3.3936 l 4.48448,3.140381 a 19.883126,19.883126 0 0 1 2.22157,-2.652561 z"
         id="path7450" />
      <path
         inkscape:connector-curvature="0"
         style="display:inline;fill:#a18f4c;fill-opacity:0.48235294;fill-rule:nonzero;stroke:none;stroke-width:0.26499999;stroke-linecap:round;stroke-linejoin:round;stroke-miterlimit:4;stroke-dasharray:none;stroke-opacity:1;paint-order:stroke fill markers"
         d="m 150.13725,37.471383 a 25.373864,25.373864 0 0 0 -3.0117,8.26253 l 5.39036,0.95085 a 19.883126,19.883126 0 0 1 2.36472,-6.47453 z"
         id="path7452" />
      <path
         inkscape:connector-curvature="0"
         style="display:inline;fill:#a18f4c;fill-opacity:0.55686275;fill-rule:nonzero;stroke:none;stroke-width:0.26499999;stroke-linecap:round;stroke-linejoin:round;stroke-miterlimit:4;stroke-dasharray:none;stroke-opacity:1;paint-order:stroke fill markers"
         d="m 146.82531,47.923443 a 25.373864,25.373864 0 0 0 -0.13488,2.20762 25.373864,25.373864 0 0 0 4.5992,14.54743 l 4.5067,-3.15588 a 19.883126,19.883126 0 0 1 -3.61528,-11.39155 19.883126,19.883126 0 0 1 0.0935,-1.73064 z"
         id="path7454" />
      <path
         inkscape:connector-curvature="0"
         style="display:inline;fill:#a18f4c;fill-opacity:0.70588235;fill-rule:nonzero;stroke:none;stroke-width:0.26499999;stroke-linecap:round;stroke-linejoin:round;stroke-miterlimit:4;stroke-dasharray:none;stroke-opacity:1;paint-order:stroke fill markers"
         d="m 156.84795,62.899793 -4.21938,3.54035 a 25.373864,25.373864 0 0 0 19.43551,9.06508 25.373864,25.373864 0 0 0 12.67572,-3.41943 l -2.74609,-4.7568 a 19.883126,19.883126 0 0 1 -9.92963,2.68561 19.883126,19.883126 0 0 1 -15.21613,-7.11481 z"
         id="path7456" />
      <path
         style="display:inline;fill:#a18f4c;fill-opacity:1;stroke:none;stroke-width:0.12370985px;stroke-linecap:butt;stroke-linejoin:miter;stroke-opacity:1"
         d="m 180.24906,39.912813 -2.41548,-13.002271 12.73759,-2.03002 z"
         id="path7458"
         inkscape:connector-curvature="0"
         sodipodi:nodetypes="cccc" />
    </g>
  </g>
</svg>
